<svg width="96" height="177" viewBox="0 0 96 177" fill="none" xmlns="http://www.w3.org/2000/svg">
<path d="M90.3867 120.076C90.3867 121.733 89.0436 123.076 87.3867 123.076L9.59161 123.076C7.93476 123.076 6.59162 121.733 6.59162 120.076L6.59163 44.5977C6.59163 43.0299 7.79888 41.7264 9.36213 41.6065L16.6781 41.0452L78.7485 41.0452L87.5858 41.6328C89.1619 41.7376 90.3867 43.0466 90.3867 44.6262L90.3867 120.076Z" fill="#83898D"/>
<path d="M0.417969 86.3838C0.417969 84.7269 1.76111 83.3838 3.41797 83.3838H92.6797C94.3366 83.3838 95.6797 84.7269 95.6797 86.3838V173.221C95.6797 174.789 94.4728 176.092 92.9098 176.212L84.2131 176.881H13.6488L3.21841 176.186C1.64252 176.081 0.417969 174.772 0.417969 173.193V86.3838Z" fill="#83898D"/>
<rect x="22.4688" y="18.9939" width="8.82054" height="25.5796" fill="#83898D"/>
<rect x="64.8086" y="18.9939" width="8.82054" height="25.5796" fill="#83898D"/>
<path d="M21.5879 5.76302C21.5879 2.84015 23.9573 0.470703 26.8802 0.470703C29.8031 0.470703 32.1725 2.84016 32.1725 5.76303V18.9938H21.5879V5.76302Z" fill="#C7C7C7"/>
<path d="M63.9277 5.76302C63.9277 2.84015 66.2972 0.470703 69.2201 0.470703C72.1429 0.470703 74.5124 2.84016 74.5124 5.76303V18.9938H63.9277V5.76302Z" fill="#C7C7C7"/>
<g style="mix-blend-mode:multiply">
<path d="M84.2129 83.3838H92.6797C94.3365 83.3838 95.6797 84.7269 95.6797 86.3838V173.221C95.6797 174.789 94.4728 176.092 92.9098 176.212L84.2129 176.881V83.3838Z" fill="#83898D" fill-opacity="0.6"/>
</g>
<g style="mix-blend-mode:multiply">
<path d="M11.8848 83.3838H3.41807C1.76121 83.3838 0.418069 84.7269 0.418069 86.3838V173.221C0.418069 174.789 1.62499 176.092 3.18798 176.212L11.8848 176.881V83.3838Z" fill="#83898D" fill-opacity="0.2"/>
</g>
<g style="mix-blend-mode:multiply">
<path d="M78.9199 41.0452L87.6167 41.7142C89.1797 41.8344 90.3866 43.1378 90.3866 44.7054V83.3838H78.9199V41.0452Z" fill="#83898D" fill-opacity="0.6"/>
</g>
<g style="mix-blend-mode:multiply" opacity="0.2">
<path d="M18.0587 41.0452L9.36187 41.7142C7.79887 41.8344 6.59196 43.1378 6.59196 44.7054V83.3838H18.0587V41.0452Z" fill="#83898D"/>
</g>
</svg>
