<svg width="229" height="134" viewBox="0 0 229 134" fill="none" xmlns="http://www.w3.org/2000/svg">
<path d="M149.135 50.7593L139.806 69.1083L157.144 57.8789L149.135 50.7593Z" fill="white"/>
<path d="M137.822 65.547L143.047 54.1605L135.799 53.041L137.822 65.547Z" fill="white"/>
<path d="M89.06 48.2881L94.4807 68.1445L79.775 53.6352L89.06 48.2881Z" fill="white"/>
<path d="M97.7707 65.0356L94.9622 52.8242L102.283 53.1974L97.7707 65.0356Z" fill="white"/>
<path d="M77.7036 112.219H59.7572L62.1926 119.52L77.7036 112.219Z" fill="white"/>
<path d="M78.3124 115.263L66.1453 125.299L71.9244 128.339L78.3124 115.263Z" fill="white"/>
<path d="M154.035 117.083H171.976L169.546 124.385L154.035 117.083Z" fill="white"/>
<path d="M153.427 120.128L165.589 130.165L159.815 133.204L153.427 120.128Z" fill="white"/>
<path d="M166.396 52.0167C165.743 55.3506 181.857 83.2055 194.859 86.4609C198.891 66.3001 173.584 51.8743 166.396 52.0167Z" fill="#233942"/>
<path d="M160.572 64.7777C161.598 68.9955 177.905 89.2987 180.188 90.2071C182.471 91.1154 183.266 90.32 183.836 89.7504C184.406 89.1809 166.852 61.7728 162.737 60.7858C159.885 60.1033 160.572 64.7777 160.572 64.7777Z" fill="#233942"/>
<path d="M185.815 84.0895C174.536 92.4906 160.98 101.285 155.053 105.065C153.153 106.278 152.033 106.97 152.033 106.97L148.935 97.7346L142.473 78.4674C142.473 78.3839 143.347 77.7064 144.781 76.6556C151.115 72.0107 168.325 60.0693 168.325 60.0693C168.325 60.0693 173.373 63.963 178.052 69.2316C178.754 70.0221 179.446 70.8421 180.114 71.6866C183.227 75.6343 185.751 80.0583 185.81 84.0944L185.815 84.0895Z" fill="#FBC08B"/>
<path d="M185.815 84.0897C174.536 92.4909 160.98 101.285 155.053 105.066C153.153 106.278 152.033 106.971 152.033 106.971L148.935 97.7349L153.899 92.8788L180.114 71.6869L180.188 71.6279C184.165 76.1108 185.741 79.1944 185.815 84.0946V84.0897Z" fill="#F7A079"/>
<path d="M153.899 92.8734C151.851 86.1859 148.021 80.9026 146.013 78.1186C145.64 77.5981 145.228 77.112 144.786 76.6505C144.182 76.0171 143.534 75.4279 142.861 74.873C138.913 71.598 132.771 67.6257 127.88 66.1478C122.744 64.5913 117.176 63.9874 112.752 67.3655C110.327 69.2166 111.967 74.6373 111.353 77.4263L111.318 78.2512L108.755 93.0256C111.716 95.191 114.652 97.3907 117.422 99.7917C120.859 102.772 123.918 106.165 127.154 109.352C130.321 112.465 133.365 115.632 136.021 119.196C136.694 120.095 137.312 121.047 137.926 122C138.167 121.823 138.407 121.651 138.648 121.475C145.355 116.555 152.097 111.08 154.316 108.718C154.38 108.487 154.439 108.252 154.493 108.021C154.738 107.024 154.92 106.032 155.043 105.055C155.607 100.685 155.018 96.5609 153.889 92.8685L153.899 92.8734Z" fill="#FBC08B"/>
<path d="M116.096 74.5884L111.353 77.4313L111.319 78.2562L108.755 93.0307C111.716 95.196 114.652 97.3957 117.422 99.7967C120.859 102.777 123.918 106.17 127.154 109.357C130.321 112.47 133.365 115.637 136.021 119.201C136.694 120.1 137.313 121.048 137.926 122.005C144.869 116.953 152.018 111.169 154.316 108.728C154.38 108.497 154.439 108.262 154.493 108.031C151.895 78.924 115.87 74.5884 116.086 74.5884H116.096Z" fill="#F7A079"/>
<path d="M196.268 82.3408C195.708 83.6273 192.202 86.0381 188.308 88.4785C186.673 89.4948 184.97 90.521 183.384 91.4687C182.47 91.3558 180.192 90.2166 180.192 90.2166C180.192 90.2166 181.218 90.5603 182.475 90.1037C180.536 82.007 162.967 62.6809 162.403 62.617C160.517 62.4108 160.547 64.3061 160.571 64.7087C160.508 64.365 160.252 62.8527 160.35 62.0426C160.404 61.5957 162.555 59.4648 164.971 57.378C167.47 55.2175 170.254 53.0964 171.3 52.9196C173.352 52.5759 178.341 55.5858 183.045 60.9034C188.289 66.8348 195.133 76.4144 196.273 82.3458L196.268 82.3408Z" fill="white"/>
<path d="M196.268 82.3408C195.708 83.6273 192.203 86.0381 188.309 88.4785C182.142 74.2883 171.04 62.9067 164.966 57.378C167.466 55.2175 170.25 53.0964 171.296 52.9196C173.348 52.5759 178.337 55.5858 183.04 60.9034C188.284 66.8348 195.129 76.4144 196.268 82.3458V82.3408Z" fill="#EEE1D7"/>
<path d="M175.626 96.8586L173.918 97.9486L172.283 98.9895L149.318 70.8597L150.482 69.9022L150.992 69.4897L175.626 96.8586Z" fill="#EE7E22"/>
<path d="M173.918 97.9487L172.283 98.9897L149.318 70.8598L150.482 69.9023L173.918 97.9487Z" fill="#B54F26"/>
<path d="M170.303 101.274L169.056 102.379L167.569 103.704L146.126 73.753L146.931 73.0705L148.105 72.0786L170.303 101.274Z" fill="#EE7E22"/>
<path d="M169.056 102.378L167.569 103.704L146.126 73.7523L146.931 73.0698L169.056 102.378Z" fill="#B54F26"/>
<path d="M228.542 9.67593V66.0289C221.314 70.4775 209.569 77.6609 194.859 86.4598C193.307 82.2469 191.505 78.5005 189.571 75.1715C185.083 67.4185 179.893 61.9388 175.572 58.2612C170.357 53.8274 166.395 52.0156 166.395 52.0156L220.396 5.91972C223.602 3.17989 228.547 5.46308 228.547 9.67593H228.542Z" fill="#524460"/>
<path d="M228.542 9.67593V16.5353C211.985 29.6845 184.641 51.3527 175.572 58.2612C170.357 53.8274 166.395 52.0156 166.395 52.0156L220.396 5.91972C223.602 3.17989 228.547 5.46308 228.547 9.67593H228.542Z" fill="#6D627B"/>
<path d="M228.542 45.4756V66.0243C221.315 70.4728 209.57 77.6563 194.859 86.4551C193.307 82.2423 191.505 78.4959 189.571 75.1669L228.542 45.4756Z" fill="#41344F"/>
<path d="M43.7944 98.5336C43.7944 98.5336 52.3085 88.3451 69.7982 50.0269C45.4 51.0334 36.4882 86.936 43.7944 98.5336Z" fill="#233942"/>
<path d="M154.645 110.132C154.645 110.132 154.056 111.026 153.241 112.027C152.75 112.636 152.166 113.279 151.586 113.78C150.899 114.374 150.207 114.762 149.652 114.649C149.181 114.541 148.375 114.055 147.786 113.672C147.388 113.417 147.094 113.201 147.05 113.176C147.05 113.176 147.059 113.186 147.059 113.196C147.177 113.431 148.149 115.351 148.149 116.225C148.032 116.554 147.801 116.972 147.506 117.423C147.177 117.919 146.765 118.464 146.338 118.965C145.459 120.001 144.506 120.88 144.059 120.954C142.694 120.885 134.745 117.237 134.003 116.898C134.003 116.898 133.994 116.898 133.989 116.898C134.431 117.247 139.066 120.831 139.547 122.535C139.626 124.027 138.845 125.535 137.873 126.684C137.018 127.69 136.021 128.422 135.319 128.623C133.355 128.766 126.849 125.672 126.584 125.554L126.663 125.623C127.228 126.119 130.316 128.879 130.449 129.988C130.066 130.833 129.521 131.589 128.936 132.208C127.881 133.322 126.692 134 126.005 134C124.93 134 97.7769 127.474 84.3969 114.698C78.1807 109.268 74.8173 102.227 74.8173 102.227L72.4801 101.254L64.7909 98.058L45.5974 90.0693C45.5974 90.0693 46.8348 85.6797 49.005 79.925C52.2506 71.3471 57.5731 59.7299 63.9857 55.0898L79.6537 66.4027L87.5983 72.1377L94.7375 77.2932C94.7375 77.2932 94.7375 77.2932 94.7572 77.2932C95.312 77.0772 109.031 71.9412 123.628 77.5977C138.531 83.3768 147.958 94.9303 150.997 99.8011C154.042 104.667 154.645 110.142 154.645 110.142V110.132Z" fill="#FBC08B"/>
<path d="M148.144 116.22C148.026 116.549 147.795 116.967 147.501 117.419C144.348 112.086 129.594 97.5425 129.594 97.5425C133.34 98.4361 143.641 108.055 143.813 108.286C144.471 109.145 146.219 111.521 147.785 113.667C147.388 113.412 147.093 113.196 147.049 113.171C147.049 113.171 147.059 113.181 147.059 113.191C147.177 113.427 148.149 115.346 148.149 116.22H148.144Z" fill="#F8CDAA"/>
<path d="M154.645 110.132C154.645 110.132 154.056 111.025 153.241 112.027C150.918 106.444 145.345 95.1069 131.607 85.6501C114.368 73.7873 95.4441 77.1556 94.7518 77.2833C95.3066 77.0673 109.025 71.9313 123.623 77.5877C138.525 83.3669 147.953 94.9203 150.992 99.7911C154.036 104.657 154.64 110.132 154.64 110.132H154.645Z" fill="#F8CDAA"/>
<path d="M83.4781 77.1702C84.848 79.6007 85.6827 85.0754 82.717 89.1017C79.7513 93.1329 75.2684 93.3636 75.2684 93.3636L72.6808 100.208C72.6808 100.208 72.6219 100.626 72.4746 101.249L64.7854 98.0528C67.3927 87.6581 76.5696 71.6071 79.6482 66.3975L87.5927 72.1324C86.6647 73.5367 85.3439 75.2503 83.4781 77.1751V77.1702Z" fill="#F7A079"/>
<path d="M128.936 132.202C127.88 133.316 126.692 133.994 126.005 133.994C124.929 133.994 97.7767 127.468 84.3967 114.692C78.1805 109.262 74.8171 102.221 74.8171 102.221L45.5923 90.0632C45.5923 90.0632 46.8296 85.6736 48.9999 79.9189C56.3846 84.829 69.5633 93.1713 78.5782 96.2548C81.8729 100.978 97.0991 124.07 128.936 132.202Z" fill="#F7A079"/>
<path d="M83.8217 107.087C83.8217 107.087 87.1311 101.725 90.6664 102.294C94.2017 102.864 94.0887 109.591 92.8317 113.583C95.1149 108.677 97.3932 108.677 98.4194 108.908C99.4456 109.139 102.524 111.417 101.041 120.196C103.55 113.352 106.172 113.126 107.655 113.239C109.138 113.352 111.647 115.635 110.164 125.553C112.899 118.257 113.7 117.8 116.322 117.683C118.944 117.565 120.883 123.727 118.944 129.545C109.934 129.889 88.8349 121.105 83.8168 107.077L83.8217 107.087Z" fill="#F7A079"/>
<path d="M151.62 113.815C150.933 114.409 150.241 114.797 149.686 114.684C148.9 114.502 147.186 113.285 147.083 113.211C147.083 113.211 141.25 105.379 129.599 97.5527C131.214 98.083 136.325 99.2614 141.343 102.915C145.517 105.954 149.931 111.119 151.625 113.82L151.62 113.815Z" fill="#F7A079"/>
<path d="M146.332 118.999C145.453 120.035 144.5 120.914 144.054 120.988C142.689 120.919 134.739 117.271 133.998 116.932C133.988 116.932 133.978 116.922 133.968 116.917C124.153 110.696 121.565 105.148 121.109 103.017C127.737 109.247 136.875 114.806 142.399 117.462C143.901 118.184 145.271 118.675 146.327 118.994L146.332 118.999Z" fill="#F7A079"/>
<path d="M137.794 126.717C136.939 127.724 135.943 128.455 135.24 128.657C133.276 128.799 126.771 125.706 126.505 125.588C126.505 125.588 118.635 121.463 115.757 116.102C120.874 119.347 131.843 125.293 137.794 126.722V126.717Z" fill="#F7A079"/>
<path d="M119.121 124.832C118.453 125.372 117.79 125.927 117.171 126.516C116.553 127.105 115.816 127.577 115.31 128.269C114.564 129.29 116.273 130.621 117.073 129.629C117.608 128.961 117.878 128.132 118.291 127.38C118.703 126.629 119.067 125.844 119.42 125.058C119.509 124.862 119.293 124.695 119.126 124.832H119.121Z" fill="#F7A079"/>
<path d="M126.603 128.97C125.916 129.314 125.277 129.884 124.669 130.355C124.04 130.846 123.348 131.332 122.793 131.907C122.042 132.682 123.161 133.763 123.966 133.08C124.585 132.555 125.125 131.892 125.66 131.283C126.156 130.718 126.745 130.139 127.124 129.486C127.325 129.142 126.932 128.804 126.603 128.966V128.97Z" fill="#F7A079"/>
<path d="M134.091 119.475C133.286 120.005 132.628 120.84 131.999 121.567C131.307 122.367 130.713 123.216 130.178 124.13C129.574 125.156 131.101 126.437 131.882 125.446C132.535 124.611 133.139 123.766 133.63 122.824C134.081 121.959 134.656 121.017 134.852 120.059C134.941 119.647 134.494 119.21 134.091 119.475Z" fill="#F7A079"/>
<path d="M145.414 96.0494C144.761 96.7663 143.814 97.164 143.033 97.7189C142.257 98.2688 141.678 98.9758 141.295 99.8449C141.079 100.341 141.432 100.891 142.002 100.763C143.018 100.537 143.848 99.9677 144.418 99.0986C144.997 98.2148 145.183 97.164 145.665 96.2409C145.743 96.0838 145.542 95.907 145.414 96.0445V96.0494Z" fill="#F7A079"/>
<path d="M143.253 113.412C142.659 113.677 142.163 113.917 141.707 114.403C141.495 114.629 141.333 114.85 141.216 115.13C141.093 115.425 141.063 115.651 140.99 115.955C140.96 116.083 141.068 116.186 141.196 116.161C141.466 116.097 141.697 116.078 141.957 115.975C142.271 115.852 142.512 115.69 142.762 115.459C143.253 115.012 143.499 114.511 143.769 113.927C143.931 113.574 143.607 113.259 143.258 113.417L143.253 113.412Z" fill="#F7A079"/>
<path d="M152.032 106.969C151.438 107.234 150.942 107.475 150.486 107.961C150.275 108.186 150.113 108.407 149.995 108.687C149.872 108.982 149.842 109.208 149.769 109.512C149.739 109.64 149.847 109.743 149.975 109.718C150.245 109.655 150.476 109.635 150.736 109.532C151.05 109.409 151.291 109.247 151.541 109.016C152.032 108.569 152.278 108.069 152.548 107.484C152.71 107.131 152.386 106.817 152.037 106.974L152.032 106.969Z" fill="#F7A079"/>
<path d="M125.081 114.286C124.261 114.325 123.76 115.032 123.353 115.675C122.857 116.456 122.67 117.345 122.489 118.238C122.469 118.342 122.606 118.454 122.685 118.351C123.215 117.698 123.824 117.153 124.34 116.486C124.786 115.911 125.381 115.312 125.331 114.536C125.322 114.404 125.223 114.281 125.081 114.286Z" fill="#F7A079"/>
<path d="M132.177 107.082C131.695 107.73 131.455 108.545 131.494 109.35C131.499 109.473 131.519 109.611 131.607 109.699C131.774 109.876 132.069 109.768 132.275 109.64C133.188 109.066 134.141 107.951 134.303 106.841C134.538 105.196 132.638 106.463 132.177 107.082Z" fill="#F7A079"/>
<path d="M73.3291 59.4199C73.3291 59.4199 66.7152 66.9471 62.6104 74.0176C58.5056 81.0881 56.679 88.3894 55.314 95.1162C54.0325 95.0622 51.3172 93.9918 48.8867 92.9116C46.358 91.7921 44.1387 90.6677 44.1387 90.6677C45.2778 75.9571 60.6758 52.6931 63.1849 52.1235C63.8232 52.2365 66.4305 54.1219 68.8462 55.9485C71.1834 57.7161 73.334 59.4248 73.334 59.4248L73.3291 59.4199Z" fill="white"/>
<path d="M68.8413 55.9436C65.1784 60.0779 58.4958 68.1255 54.9703 75.5004C51.219 83.3369 49.5103 90.0294 48.8867 92.9116C46.358 91.7921 44.1387 90.6677 44.1387 90.6677C45.2778 75.9571 60.6758 52.6931 63.1849 52.1235C63.8232 52.2365 66.4305 54.1219 68.8462 55.9485L68.8413 55.9436Z" fill="#EEE1D7"/>
<path d="M64.4712 45.7109C66.9655 47.6896 66.9213 51.4802 64.3926 53.4148C64.3582 53.4393 64.3288 53.4639 64.2944 53.4884C59.8115 56.9451 53.5069 63.3086 49.0535 73.9684C47.0109 78.8588 45.3513 84.6478 44.438 91.4777C43.9912 94.8215 40.4559 96.7905 37.4019 95.3567C25.4409 89.7494 12.5863 85.242 2.97727 79.7623C1.42078 78.8736 0.453491 77.2238 0.453491 75.4316V6.15032C0.453491 2.02585 5.1819 -0.306435 8.45202 2.20262C24.2183 14.3109 52.4562 36.1755 64.4662 45.7109H64.4712Z" fill="#31474D"/>
<path d="M49.0536 73.9734C46.3384 80.4646 44.3105 88.5417 43.795 98.5337C29.1678 90.8101 11.8843 85.4728 0.458557 78.255V47.5474C15.6209 55.7423 35.055 66.3333 49.0536 73.9734Z" fill="#233942"/>
<path d="M66.0875 52.1933C66.058 52.213 66.0285 52.2326 65.9991 52.2523C64.9385 52.979 63.549 53.0035 62.4736 52.3014C53.0856 46.1441 10.2647 18.0683 1.88321 12.5739C0.994488 11.9896 0.45929 10.9978 0.45929 9.93717V4.84541C0.45929 1.25614 4.57394 -0.776631 7.41688 1.40836C23.7675 13.9585 55.3 38.3715 66.2642 47.1409C67.914 48.4568 67.8305 51.0002 66.0875 52.1933Z" fill="#506A84"/>
<path d="M85.8394 69.6405L82.697 74.1725L80.5169 77.3149L71.394 72.1446C71.394 72.0169 72.3416 70.1953 73.5937 68.1969C74.6052 66.5766 75.8131 64.8335 76.8687 63.7778C79.6822 65.2263 85.8394 69.6356 85.8394 69.6356V69.6405Z" fill="#31474D"/>
<path d="M82.6969 74.1782L80.5168 77.3207L71.3939 72.1503C71.3939 72.0227 72.3415 70.201 73.5936 68.2026C75.8228 68.62 79.9914 70.1372 82.6969 74.1733V74.1782Z" fill="#233942"/>
<path d="M73.4567 91.1729L72.185 95.6705L70.7169 100.856C70.7169 100.856 64.0735 98.5675 60.6463 96.7409C60.5628 95.9798 61.319 93.4168 62.0948 91.0747C62.8362 88.816 63.5825 86.7734 63.5825 86.7734L73.4616 91.1729H73.4567Z" fill="#31474D"/>
<path d="M63.5773 86.7734L73.4564 91.1729L72.1847 95.6705C69.6511 95.587 67.2746 94.9094 65.6101 93.8243C64.0929 92.8276 62.9734 92.0027 62.0895 91.0796C62.831 88.8209 63.5773 86.7783 63.5773 86.7783V86.7734Z" fill="#233942"/>
<path d="M77.0556 72.3814C72.229 69.4158 65.3844 70.329 62.0013 76.2211C60.0029 79.7073 59.2271 89.1101 68.0456 91.9972C77.144 94.9776 82.1867 87.7402 82.6433 82.344C83.0361 77.7187 80.3503 74.4093 77.0556 72.3864V72.3814Z" fill="#31474D"/>
<path d="M75.3615 75.3272C72.0571 73.2993 67.3778 73.9229 65.0651 77.9541C63.6952 80.3355 63.1649 86.7677 69.1994 88.7464C75.4254 90.7841 78.8723 85.8347 79.1865 82.1424C79.4516 78.9754 77.6202 76.7167 75.3615 75.3272Z" fill="white"/>
<path d="M65.3842 83.175C65.3842 83.175 67.5152 78.6135 72.3811 79.1438C77.247 79.6741 77.7773 83.4008 77.7773 83.4008C77.7773 83.4008 78.7642 79.5218 75.7248 76.7084C72.6855 73.8949 68.8065 75.1126 66.9063 77.3172C65.0061 79.5219 65.3842 83.17 65.3842 83.17V83.175Z" fill="#EEE1D7"/>
<path d="M72.0179 80.2863C71.1341 79.7118 68.8803 85.3044 68.7674 87.4157C69.224 87.1309 73.157 81.0277 72.0179 80.2863Z" fill="#36465A"/>
<path d="M72.018 80.2874C71.036 79.762 72.3175 84.5101 74.1637 86.4446C73.7955 83.3071 73.1031 80.8668 72.018 80.2874Z" fill="#36465A"/>
<path d="M88.7315 105.476C86.6104 105.417 84.8035 107.45 83.3157 111.132C81.8329 114.815 81.5088 119.337 84.1111 120.707C86.7135 122.077 88.6039 120.879 90.0229 117.947C91.4419 115.016 93.6907 105.618 88.7315 105.481V105.476Z" fill="#FBC08B"/>
<path d="M86.4488 106.802C86.4488 106.802 84.0723 109.871 84.2982 113.303C84.4602 114.191 85.074 114.732 86.002 115.09C86.93 115.444 88.6976 115.601 89.5274 114.933C90.3572 114.265 91.899 110.366 91.0299 108.53C88.6632 107.528 86.4488 106.802 86.4488 106.802Z" fill="#F7A079"/>
<path d="M89.7478 104.591C88.3091 104.267 86.9048 105.156 85.5398 108.642C84.1748 112.123 84.9015 113.621 86.6691 114.156C88.4368 114.691 89.9491 114.264 90.7298 111.681C91.6578 108.622 91.8591 105.068 89.7478 104.596V104.591Z" fill="#F8CDAA"/>
<path d="M85.27 112.599C85.27 112.599 85.3339 113.233 86.5368 113.542C87.4894 113.793 88.3978 114.22 88.9772 113.753C89.5565 113.292 89.0852 112.207 88.1719 111.549C87.2586 110.891 85.1031 111.48 85.27 112.599Z" fill="#F7E2D2"/>
<path d="M97.0351 112.218C95.0073 112.248 93.4262 114.133 92.2625 117.482C91.1038 120.826 91.1087 124.876 93.6816 125.996C96.2544 127.115 97.973 125.971 99.1268 123.295C100.276 120.624 101.768 112.15 97.0351 112.223V112.218Z" fill="#FBC08B"/>
<path d="M94.9487 113.494C94.9487 113.494 92.8962 116.327 93.348 119.381C93.564 120.166 94.1876 120.628 95.096 120.908C96.0043 121.188 97.6983 121.256 98.4446 120.628C99.191 120 100.389 116.459 99.4316 114.854C97.1042 114.053 94.9487 113.494 94.9487 113.494Z" fill="#F7A079"/>
<path d="M97.9433 111.388C96.5488 111.157 95.2722 112.006 94.2116 115.168C93.151 118.33 93.9465 119.637 95.6699 120.044C97.3934 120.452 98.8026 120.01 99.3721 117.673C100.045 114.903 99.9908 111.722 97.9433 111.388Z" fill="#F8CDAA"/>
<path d="M94.2261 118.714C94.2261 118.714 94.3341 119.273 95.4978 119.504C96.4258 119.686 97.3195 120.034 97.8399 119.597C98.3604 119.16 97.835 118.213 96.9168 117.663C95.9986 117.108 93.9855 117.722 94.2212 118.714H94.2261Z" fill="#F7E2D2"/>
<path d="M106.389 116.303C104.42 116.347 102.873 118.237 101.724 121.586C100.58 124.935 100.56 128.981 103.055 130.08C105.549 131.18 107.223 130.031 108.358 127.35C109.492 124.674 110.989 116.2 106.389 116.303Z" fill="#FBC08B"/>
<path d="M104.356 117.588C104.356 117.588 102.347 120.426 102.765 123.48C102.971 124.261 103.575 124.718 104.454 124.998C105.333 125.278 106.983 125.332 107.709 124.698C108.436 124.065 109.619 120.525 108.701 118.924C106.447 118.138 104.356 117.588 104.356 117.588Z" fill="#F7A079"/>
<path d="M107.277 115.468C105.922 115.247 104.68 116.101 103.629 119.268C102.578 122.435 103.349 123.732 105.019 124.129C106.688 124.527 108.063 124.08 108.628 121.743C109.295 118.974 109.261 115.797 107.277 115.473V115.468Z" fill="#F8CDAA"/>
<path d="M103.625 122.803C103.625 122.803 103.723 123.363 104.857 123.589C105.756 123.766 106.625 124.11 107.13 123.668C107.641 123.231 107.13 122.283 106.247 121.738C105.358 121.193 103.399 121.817 103.625 122.803Z" fill="#F7E2D2"/>
<path d="M115.625 120.23C113.818 120.303 112.365 122.213 111.26 125.572C110.155 128.93 110.401 132.029 112.674 133.089C114.942 134.145 116.17 133.899 117.255 131.213C118.34 128.528 119.853 120.058 115.625 120.23Z" fill="#FBC08B"/>
<path d="M113.739 121.547C113.739 121.547 111.848 124.409 112.182 127.444C112.359 128.22 112.904 128.666 113.709 128.927C114.51 129.187 116.022 129.216 116.699 128.573C117.377 127.93 118.521 124.38 117.706 122.804C115.649 122.058 113.739 121.547 113.739 121.547Z" fill="#F7A079"/>
<path d="M116.454 119.386C115.217 119.184 114.063 120.058 113.047 123.23C112.03 126.402 112.718 127.684 114.24 128.052C115.767 128.42 117.034 127.949 117.589 125.612C118.247 122.842 118.266 119.675 116.454 119.381V119.386Z" fill="#F8CDAA"/>
<path d="M112.983 126.755C112.983 126.755 113.067 127.31 114.098 127.516C114.918 127.678 115.708 128.002 116.184 127.56C116.661 127.113 116.209 126.18 115.404 125.65C114.599 125.12 112.787 125.773 112.978 126.755H112.983Z" fill="#F7E2D2"/>
<path d="M97.3191 86.6752C97.3191 86.6752 97.5106 94.659 111.161 88.8945C124.192 83.3903 119.39 71.8615 119.39 71.8615L114.917 69.5537L97.3191 86.6801V86.6752Z" fill="#F7A079"/>
<path d="M114.765 80.5724C111.038 84.525 109.251 87.1323 103.324 88.6102C98.1196 89.9114 97.3192 86.6707 97.3192 86.6707C97.3192 86.6707 99.0377 83.8376 103.221 80.0814C109.025 68.8029 111.912 67.3937 114.5 66.0287C117.087 64.6588 118.531 68.0468 118.987 70.1728C119.444 72.3038 117.735 76.6198 114.77 80.5724H114.765Z" fill="#FBC08B"/>
<path d="M106.363 82.6447C103.776 85.9934 100.736 86.9018 100.736 86.9018C100.736 86.9018 99.332 86.5237 97.8835 85.9885C97.8835 85.9885 98.7869 84.2945 101.91 81.2895C102.028 81.1815 102.145 81.0637 102.268 80.9507C102.563 80.6709 102.877 80.3861 103.211 80.0817C103.211 80.0817 105.057 79.3746 106.353 82.6398L106.363 82.6447Z" fill="#F8CDAA"/>
<path d="M106.363 82.6447C104.026 82.2323 102.651 81.7118 101.915 81.2895C102.033 81.1815 102.15 81.0637 102.273 80.9507C102.568 80.6709 102.882 80.3861 103.216 80.0817C103.216 80.0817 105.062 79.3746 106.358 82.6398L106.363 82.6447Z" fill="#F7E2D2"/>
</svg>
